<svg width="543" height="484" viewBox="0 0 543 484" fill="none" xmlns="http://www.w3.org/2000/svg">
<path fill-rule="evenodd" clip-rule="evenodd" d="M163.762 444.239C205.822 463.011 249.037 486.932 293.216 482.512C337.217 478.109 363.247 441.52 399.559 420.648C442.81 395.786 504.257 390.207 527.068 348.091C550.643 304.563 546.157 245.851 519.509 199.182C493.847 154.241 431.841 141.003 389.662 107.454C347.837 74.1872 325.256 15.7449 273.11 3.20047C220.874 -9.36554 174.981 24.2111 129.567 44.8847C86.7409 64.3798 39.7297 81.7438 16.5795 119.978C-6.24027 157.667 -0.492496 205.342 5.10431 250.444C10.4071 293.177 18.7096 337.303 47.985 373.062C76.5089 407.903 121.438 425.35 163.762 444.239Z" fill="#D6EBDC"/>
</svg>
